<svg xmlns:xlink="http://www.w3.org/1999/xlink" xmlns="http://www.w3.org/2000/svg" class="icon icon-cat" width="819"  height="1024" ><defs><symbol id="icon-cat" viewBox="0 0 819 1024">
<title>cat</title>
<path class="path1" d="M614.4 409.6c-34.133 0-61.44-6.827-88.747-20.48l-136.533 136.533c13.653 27.307 20.48 54.613 20.48 88.747 0 27.307-6.827 54.613-20.48 81.92l129.707 88.747c27.307-20.48 61.44-34.133 95.573-34.133 75.093 0 136.533 61.44 136.533 136.533s-61.44 136.533-136.533 136.533-136.533-61.44-136.533-136.533c0-13.653 0-27.307 6.827-47.787l-129.707-88.747c-40.96 40.96-88.747 68.267-150.187 68.267-116.053 0-204.8-88.747-204.8-204.8s88.747-204.8 204.8-204.8c34.133 0 61.44 6.827 88.747 20.48l136.533-136.533c-13.653-27.307-20.48-54.613-20.48-88.747 0-116.053 88.747-204.8 204.8-204.8s204.8 88.747 204.8 204.8c0 116.053-88.747 204.8-204.8 204.8zM614.4 136.533c-40.96 0-68.267 27.307-68.267 68.267s27.307 68.267 68.267 68.267c40.96 0 68.267-27.307 68.267-68.267s-27.307-68.267-68.267-68.267z"></path>
</symbol></defs><use xlink:href="#icon-cat" fill="#3394E6"></use></svg>